# xmcd
#
# Track frame offsets: 
#        150
#        15032
#        30400
#        50875
#        73230
#        96480
#        117620
#        138280
#        164125
#        187450
#        203345
#        226792
#        244375
#        260717
#
# Disc length: 3739 seconds
#
# Revision: 0
# Processed by: cddbd v1.5.1PL0 Copyright (c) Steve Scherf et al.
# Submitted via: ExactAudioCopy v0.95a3
#
DISCID=d10e990e
DTITLE=Various Artist - Созвездие Любви. Песни На Стихи Андрея Дементьева
DYEAR=1995
DGENRE=Pop
TTITLE0=Яак Йоала - Созвездие Любви
TTITLE1=Евгений Мартынов - Письмо Отца
TTITLE2=Аркадий Хоралов - Дай Мне Посмотреть В Глаза
TTITLE3=София Ротару - Лебединая Верность
TTITLE4=Евгений Мартынов - Натали
TTITLE5=Аркадий Хоралов - Без Тебя
TTITLE6=Евгений Мартынов - Отчий Дом
TTITLE7=Яак Йоала - Как Жаль
TTITLE8=Аркадий Хоралов - Давай Помолчим
TTITLE9=Евгений Мартынов - Алёнушка
TTITLE10=Валерий Леонтьев - Если Ты Уйдёшь
TTITLE11=Карел Готт - Мне Сон Приснился
TTITLE12=Земляне - Каскадёры
TTITLE13=Михаил Муромов - Яблоки На Снегу
EXTD=
EXTT0=
EXTT1=
EXTT2=
EXTT3=
EXTT4=
EXTT5=
EXTT6=
EXTT7=
EXTT8=
EXTT9=
EXTT10=
EXTT11=
EXTT12=
EXTT13=
PLAYORDER=
